<svg fill="none" height="118" viewBox="0 0 400 118" width="400" xmlns="http://www.w3.org/2000/svg"><g fill="#18242d"><path clip-rule="evenodd" d="m84.9039 22h.2173l36.3948.1098c1.087 0 1.847.7685 1.304 1.5371l-23.9012 34.9139c-.2173.3294-.2173.6588 0 .9882l23.6842 34.9139c.543.6587-.217 1.5371-1.304 1.5371l-83.546-.1098h-3.0419-.2173c-.4346 0-.8692-.3294-.8692-.6588 0-.1098 0-.2196.1086-.3293l49.4324-72.0238c.3259-.5489.9778-.8783 1.7383-.8783z" fill-rule="evenodd"/><path clip-rule="evenodd" d="m22.1086 23.3175c0-.7685.7606-1.3175 1.7383-1.3175l48.346.1098c1.4123 0 2.1728.9881 1.6296 1.8665l-48.4546 71.2552c-.3259.5489-.8691.7685-1.521.7685-.9777 0-1.8469-.549-1.8469-1.3175z" fill-rule="evenodd"/><path d="m156.082 44.4555c1.518 0 10.475.1518 10.475 10.0195 0 10.0194-8.957 10.0194-10.475 10.0194h-6.983v7.8941c0 .4554-.456.9109-.911.9109h-2.277c-.456 0-.911-.4555-.911-.9109v-26.8703c0-.4554.455-.9109.911-.9109h10.171zm.152 3.7953h-7.135v12.6002h7.135c3.492 0 6.224-1.6699 6.224-6.2242s-2.732-6.376-6.224-6.376z"/><path d="m173.692 73.4511c-.455 0-.911-.4554-.911-.9108v-27.0222c0-.4554.456-.9108.911-.9108h2.277c.456 0 .911.4554.911.9108v24.2896h13.967c.455 0 .911.4554.911.9109v1.9735c0 .4554-.456.9108-.911.9108h-17.155z"/><path d="m218.172 67.986h-14.877l-1.822 4.8579c-.151.3037-.455.6073-.759.6073h-2.58c-.456 0-.911-.4555-.911-.9109l10.475-27.3257c.151-.3037.607-.7591 1.214-.7591h3.947c.607 0 1.063.3036 1.215.7591l10.474 27.3257c0 .4554-.455.9109-.91.9109h-2.581c-.304 0-.607-.3036-.759-.6073zm-13.359-3.7952h11.993l-6.072-15.7882z"/><path d="m238.667 72.5403c0 .4554-.456.9109-.911.9109h-2.277c-.456 0-.911-.4555-.911-.9109v-8.8049l-10.02-18.369c0-.4555.456-.9109.911-.9109h2.733c.303 0 .607.3036.759.6072l7.59 13.8147 7.591-13.8147c.152-.3036.455-.6072.759-.6072h2.732c.456 0 .911.4554.911.9109l-10.019 18.369v8.8049z"/><path d="m265.992 44.4555c1.974 0 8.654.4554 8.654 7.4387 0 3.6434-1.67 5.6169-3.947 6.2242 2.125.4554 5.313 2.5808 5.313 7.2869 0 6.0724-4.554 7.7423-10.627 7.7423h-10.323c-.455 0-.911-.4555-.911-.9109v-26.7185c0-.4554.456-.9109.911-.9109h10.93zm.152 3.7953h-7.742v8.5013h7.742s4.403 0 4.403-4.0989c0-4.4024-4.403-4.4024-4.403-4.4024zm.304 21.4051c3.34 0 5.465-.9108 5.465-4.5543 0-3.6434-2.125-4.7061-5.465-4.7061h-8.198v9.2604z"/><path d="m312.902 59.0292c0 8.3495-6.832 15.0291-15.333 15.0291s-15.333-6.6796-15.333-15.0291c0-8.3496 6.832-15.0292 15.333-15.0292s15.333 6.6796 15.333 15.0292zm-4.099 0c0-6.376-5.162-11.234-11.234-11.234s-11.234 4.858-11.234 11.234c0 6.2242 5.162 11.2339 11.234 11.2339s11.234-5.1615 11.234-11.2339z"/><path d="m349.488 59.0292c0 8.3495-6.832 15.0291-15.333 15.0291s-15.333-6.6796-15.333-15.0291c0-8.3496 6.832-15.0292 15.333-15.0292s15.333 6.6796 15.333 15.0292zm-4.099 0c0-6.376-5.162-11.234-11.234-11.234s-11.234 4.858-11.234 11.234c0 6.2242 5.162 11.2339 11.234 11.2339s11.234-5.1615 11.234-11.2339z"/><path d="m378.028 72.5403c0 .4554-.455.9109-.911.9109h-3.795c-.152 0-.455-.1518-.607-.3036l-13.056-12.6002v11.8411c0 .4554-.455.9109-.911.9109h-2.277c-.455 0-.911-.4555-.911-.9109v-26.8703c0-.4554.456-.9109.911-.9109h2.277c.456 0 .911.4555.911.9109v11.5375l11.993-12.2966c.152-.1518.456-.3036.607-.3036h3.492c.455 0 .911.4554.911.9109l-12.904 13.3592z"/></g></svg>