<svg width="234" height="166" viewBox="0 0 234 166" fill="none" xmlns="http://www.w3.org/2000/svg">
<path fill-rule="evenodd" clip-rule="evenodd" d="M133.534 3.05176e-05H133.838L184.748 0.152075C186.267 0.152075 187.331 1.21631 186.571 2.28056L153.138 50.6277C152.834 51.0838 152.834 51.5399 153.138 51.996L186.267 100.343C187.027 101.255 185.964 102.472 184.444 102.472L67.5786 102.32H63.3234H63.0195C62.4116 102.32 61.8037 101.864 61.8037 101.407V101.407C61.8037 101.255 61.8037 101.103 61.9557 100.951L131.102 1.21632C131.558 0.45614 132.47 3.05176e-05 133.534 3.05176e-05Z" fill="#18242D"/>
<path fill-rule="evenodd" clip-rule="evenodd" d="M45.6949 1.82444C45.6949 0.760194 46.7588 0 48.1265 0L115.753 0.152044C117.729 0.152044 118.793 1.52035 118.033 2.73663L50.2541 101.407C49.7982 102.168 49.0383 102.472 48.1265 102.472C46.7588 102.472 45.543 101.711 45.543 100.647L45.6949 1.82444Z" fill="#18242D"/>
<path d="M11.0821 135.935C12.6002 135.935 21.557 136.087 21.557 145.955C21.557 155.974 12.6002 155.974 11.0821 155.974H4.09887V163.868C4.09887 164.324 3.64343 164.779 3.188 164.779H0.910852C0.455423 164.779 3.05176e-05 164.324 3.05176e-05 163.868V136.998C3.05176e-05 136.542 0.455423 136.087 0.910852 136.087H11.0821V135.935ZM11.2339 139.73H4.09887V152.331H11.2339C14.7256 152.331 17.4582 150.661 17.4582 146.107C17.4582 141.552 14.7256 139.73 11.2339 139.73Z" fill="#18242D"/>
<path d="M28.6922 164.931C28.2367 164.931 27.7813 164.475 27.7813 164.02V136.998C27.7813 136.542 28.2367 136.087 28.6922 136.087H30.9693C31.4248 136.087 31.8802 136.542 31.8802 136.998V161.287H45.8467C46.3021 161.287 46.7575 161.743 46.7575 162.198V164.172C46.7575 164.627 46.3021 165.083 45.8467 165.083H28.6922V164.931Z" fill="#18242D"/>
<path d="M73.1724 159.466H58.295L56.4733 164.324C56.3215 164.627 56.0179 164.931 55.7143 164.931H53.1335C52.6781 164.931 52.2227 164.475 52.2227 164.02L62.6975 136.694C62.8493 136.391 63.3047 135.935 63.912 135.935H67.859C68.4663 135.935 68.9217 136.239 69.0736 136.694L79.5484 164.02C79.5484 164.475 79.093 164.931 78.6376 164.931H76.0568C75.7531 164.931 75.4495 164.627 75.2977 164.324L73.1724 159.466ZM59.8131 155.671H71.8061L65.7337 139.882L59.8131 155.671Z" fill="#18242D"/>
<path d="M93.6667 164.02C93.6667 164.475 93.2113 164.931 92.7558 164.931H90.4787C90.0232 164.931 89.5679 164.475 89.5679 164.02V155.215L79.5484 136.846C79.5484 136.391 80.0038 135.935 80.4593 135.935H83.1918C83.4954 135.935 83.7991 136.239 83.9509 136.542L91.5414 150.357L99.1319 136.542C99.2837 136.239 99.5873 135.935 99.8909 135.935H102.623C103.079 135.935 103.534 136.391 103.534 136.846L93.5149 155.215V164.02H93.6667Z" fill="#18242D"/>
<path d="M120.992 135.935C122.966 135.935 129.646 136.391 129.646 143.374C129.646 147.017 127.976 148.991 125.699 149.598C127.824 150.054 131.012 152.179 131.012 156.885C131.012 162.957 126.458 164.627 120.385 164.627H110.062C109.607 164.627 109.151 164.172 109.151 163.716V136.998C109.151 136.542 109.607 136.087 110.062 136.087H120.992V135.935ZM121.144 139.73H113.402V148.232H121.144C121.144 148.232 125.547 148.232 125.547 144.133C125.547 139.73 121.144 139.73 121.144 139.73ZM121.448 161.136C124.788 161.136 126.913 160.225 126.913 156.581C126.913 152.938 124.788 151.875 121.448 151.875H113.25V161.136H121.448Z" fill="#18242D"/>
<path d="M167.902 150.509C167.902 158.858 161.07 165.538 152.569 165.538C144.068 165.538 137.236 158.858 137.236 150.509C137.236 142.159 144.068 135.48 152.569 135.48C161.07 135.48 167.902 142.159 167.902 150.509ZM163.803 150.509C163.803 144.133 158.641 139.275 152.569 139.275C146.497 139.275 141.335 144.133 141.335 150.509C141.335 156.733 146.497 161.743 152.569 161.743C158.641 161.743 163.803 156.581 163.803 150.509Z" fill="#18242D"/>
<path d="M204.488 150.509C204.488 158.858 197.656 165.538 189.155 165.538C180.654 165.538 173.822 158.858 173.822 150.509C173.822 142.159 180.654 135.48 189.155 135.48C197.656 135.48 204.488 142.159 204.488 150.509ZM200.389 150.509C200.389 144.133 195.227 139.275 189.155 139.275C183.083 139.275 177.921 144.133 177.921 150.509C177.921 156.733 183.083 161.743 189.155 161.743C195.227 161.743 200.389 156.581 200.389 150.509Z" fill="#18242D"/>
<path d="M233.028 164.02C233.028 164.475 232.573 164.931 232.117 164.931H228.322C228.17 164.931 227.867 164.779 227.715 164.627L214.659 152.027V163.868C214.659 164.324 214.204 164.779 213.748 164.779H211.471C211.016 164.779 210.56 164.324 210.56 163.868V136.998C210.56 136.542 211.016 136.087 211.471 136.087H213.748C214.204 136.087 214.659 136.542 214.659 136.998V148.535L226.652 136.239C226.804 136.087 227.108 135.935 227.259 135.935H230.751C231.206 135.935 231.662 136.391 231.662 136.846L218.758 150.205L233.028 164.02Z" fill="#18242D"/>
</svg>
