<svg width="234" height="166" viewBox="0 0 234 166" fill="none" xmlns="http://www.w3.org/2000/svg">
<path d="M186.574 2.2771C187.333 1.21443 186.271 0.151764 184.752 0.151764H133.744H133.441C132.378 0.151764 131.467 0.607193 131.012 1.36624L61.9383 100.953C61.7865 101.105 61.7866 101.257 61.7866 101.409C61.7866 101.864 62.3938 102.32 63.001 102.32H63.3047H67.5553L184.297 102.472C185.815 102.472 186.878 101.257 186.119 100.346L153.024 52.0707C152.721 51.6153 152.721 51.1599 153.024 50.7044L186.574 2.2771Z" fill="url(#paint0_linear)"/>
<path d="M115.527 0.15181L48.1238 0C46.7575 0 45.6948 0.759049 45.6948 1.82172L45.543 100.498C45.543 102.32 49.0346 102.927 50.2491 101.257L117.956 2.73258C118.563 1.5181 117.501 0.15181 115.527 0.15181Z" fill="url(#paint1_linear)"/>
<path d="M11.0821 135.566C12.6002 135.566 21.557 135.718 21.557 145.586C21.557 155.605 12.6002 155.605 11.0821 155.605H4.09887V163.499C4.09887 163.955 3.64344 164.41 3.18801 164.41H0.91086C0.45543 164.41 3.8147e-05 163.955 3.8147e-05 163.499V136.629C3.8147e-05 136.173 0.45543 135.718 0.91086 135.718H11.0821V135.566ZM11.234 139.361H4.09887V151.962H11.234C14.7256 151.962 17.4582 150.292 17.4582 145.737C17.4582 141.183 14.7256 139.361 11.234 139.361Z" fill="#18242D"/>
<path d="M28.6922 164.562C28.2367 164.562 27.7813 164.106 27.7813 163.651V136.629C27.7813 136.173 28.2367 135.718 28.6922 135.718H30.9693C31.4247 135.718 31.8802 136.173 31.8802 136.629V160.918H45.8467C46.3021 160.918 46.7575 161.374 46.7575 161.829V163.803C46.7575 164.258 46.3021 164.714 45.8467 164.714H28.6922V164.562Z" fill="#18242D"/>
<path d="M73.1724 159.097H58.295L56.4733 163.955C56.3215 164.258 56.0179 164.562 55.7142 164.562H53.1335C52.6781 164.562 52.2226 164.106 52.2226 163.651L62.6975 136.325C62.8493 136.022 63.3047 135.566 63.912 135.566H67.859C68.4663 135.566 68.9217 135.87 69.0735 136.325L79.5484 163.651C79.5484 164.106 79.093 164.562 78.6375 164.562H76.0567C75.7531 164.562 75.4495 164.258 75.2977 163.955L73.1724 159.097ZM59.8131 155.301H71.8061L65.7337 139.513L59.8131 155.301Z" fill="#18242D"/>
<path d="M93.6667 163.651C93.6667 164.106 93.2113 164.562 92.7558 164.562H90.4787C90.0233 164.562 89.5679 164.106 89.5679 163.651V154.846L79.5484 136.477C79.5484 136.022 80.0038 135.566 80.4593 135.566H83.1918C83.4955 135.566 83.7991 135.87 83.9509 136.173L91.5414 149.988L99.1319 136.173C99.2837 135.87 99.5873 135.566 99.8909 135.566H102.623C103.079 135.566 103.534 136.022 103.534 136.477L93.5149 154.846V163.651H93.6667Z" fill="#18242D"/>
<path d="M120.992 135.566C122.966 135.566 129.646 136.022 129.646 143.005C129.646 146.648 127.976 148.622 125.699 149.229C127.824 149.685 131.012 151.81 131.012 156.516C131.012 162.588 126.458 164.258 120.385 164.258H110.062C109.607 164.258 109.151 163.803 109.151 163.347V136.629C109.151 136.173 109.607 135.718 110.062 135.718H120.992V135.566ZM121.144 139.361H113.402V147.863H121.144C121.144 147.863 125.547 147.863 125.547 143.764C125.547 139.361 121.144 139.361 121.144 139.361ZM121.448 160.767C124.788 160.767 126.913 159.856 126.913 156.212C126.913 152.569 124.788 151.506 121.448 151.506H113.25V160.767H121.448Z" fill="#18242D"/>
<path d="M167.902 150.14C167.902 158.489 161.07 165.169 152.569 165.169C144.068 165.169 137.236 158.489 137.236 150.14C137.236 141.79 144.068 135.111 152.569 135.111C161.07 135.111 167.902 141.79 167.902 150.14ZM163.803 150.14C163.803 143.764 158.641 138.906 152.569 138.906C146.497 138.906 141.335 143.764 141.335 150.14C141.335 156.364 146.497 161.374 152.569 161.374C158.641 161.374 163.803 156.212 163.803 150.14Z" fill="#18242D"/>
<path d="M204.488 150.14C204.488 158.489 197.656 165.169 189.155 165.169C180.654 165.169 173.822 158.489 173.822 150.14C173.822 141.79 180.654 135.111 189.155 135.111C197.656 135.111 204.488 141.79 204.488 150.14ZM200.389 150.14C200.389 143.764 195.227 138.906 189.155 138.906C183.083 138.906 177.921 143.764 177.921 150.14C177.921 156.364 183.083 161.374 189.155 161.374C195.227 161.374 200.389 156.212 200.389 150.14Z" fill="#18242D"/>
<path d="M233.028 163.651C233.028 164.106 232.573 164.562 232.117 164.562H228.322C228.17 164.562 227.867 164.41 227.715 164.258L214.659 151.658V163.499C214.659 163.955 214.204 164.41 213.748 164.41H211.471C211.016 164.41 210.56 163.955 210.56 163.499V136.629C210.56 136.173 211.016 135.718 211.471 135.718H213.748C214.204 135.718 214.659 136.173 214.659 136.629V148.166L226.652 135.87C226.804 135.718 227.108 135.566 227.259 135.566H230.751C231.206 135.566 231.662 136.022 231.662 136.477L218.758 149.836L233.028 163.651Z" fill="#18242D"/>
<defs>
<linearGradient id="paint0_linear" x1="61.9347" y1="51.206" x2="182.247" y2="51.206" gradientUnits="userSpaceOnUse">
<stop stop-color="#0186FF"/>
<stop offset="0.9387" stop-color="#60DEFE"/>
</linearGradient>
<linearGradient id="paint1_linear" x1="45.3655" y1="51.0987" x2="118.07" y2="51.0987" gradientUnits="userSpaceOnUse">
<stop offset="0.0619712" stop-color="#0186FF"/>
<stop offset="0.9387" stop-color="#60DEFE"/>
</linearGradient>
</defs>
</svg>
