<svg fill="none" height="209" viewBox="0 0 277 209" width="277" xmlns="http://www.w3.org/2000/svg" xmlns:xlink="http://www.w3.org/1999/xlink"><linearGradient id="a" gradientUnits="userSpaceOnUse" x1="83.9347" x2="204.247" y1="73.206" y2="73.206"><stop offset="0" stop-color="#0186ff"/><stop offset=".9387" stop-color="#60defe"/></linearGradient><linearGradient id="b" gradientUnits="userSpaceOnUse" x1="67.3655" x2="140.07" y1="73.0987" y2="73.0987"><stop offset=".0619712" stop-color="#0186ff"/><stop offset=".9387" stop-color="#60defe"/></linearGradient><path d="m208.574 24.2771c.759-1.0627-.303-2.1254-1.822-2.1254h-51.008-.303c-1.063 0-1.974.4555-2.429 1.2145l-69.0737 99.5868c-.1518.152-.1518.304-.1518.456 0 .455.6072.911 1.2145.911h.3036 4.2507l116.7417.152c1.518 0 2.581-1.215 1.822-2.126l-33.095-48.2753c-.303-.4554-.303-.9109 0-1.3663z" fill="url(#a)"/><path d="m137.527 22.1518-67.4032-.1518c-1.3663 0-2.429.759-2.429 1.8217l-.1518 98.6763c0 1.822 3.4916 2.429 4.7061.759l67.7069-98.5244c.607-1.2145-.455-2.5808-2.429-2.5808z" fill="url(#b)"/><g fill="#18242d"><path d="m33.0821 157.566c1.5181 0 10.4749.152 10.4749 10.02 0 10.019-8.9568 10.019-10.4749 10.019h-6.9833v7.894c0 .456-.4554.911-.9108.911h-2.2772c-.4554 0-.9108-.455-.9108-.911v-26.87c0-.456.4554-.911.9108-.911h10.1713zm.1518 3.795h-7.1351v12.601h7.1351c3.4916 0 6.2242-1.67 6.2242-6.225 0-4.554-2.7326-6.376-6.2242-6.376z"/><path d="m50.6921 186.562c-.4554 0-.9109-.456-.9109-.911v-27.022c0-.456.4555-.911.9109-.911h2.2772c.4554 0 .9108.455.9108.911v24.289h13.9665c.4554 0 .9109.456.9109.911v1.974c0 .455-.4555.911-.9109.911h-17.1545z"/><path d="m95.1724 181.097h-14.8774l-1.8217 4.858c-.1518.303-.4554.607-.759.607h-2.5808c-.4554 0-.9108-.456-.9108-.911l10.4748-27.326c.1518-.303.6072-.759 1.2145-.759h3.947c.6073 0 1.0627.304 1.2146.759l10.4744 27.326c0 .455-.455.911-.91.911h-2.5812c-.3037 0-.6073-.304-.7591-.607zm-13.3593-3.796h11.993l-6.0724-15.788z"/><path d="m115.667 185.651c0 .455-.456.911-.911.911h-2.277c-.456 0-.911-.456-.911-.911v-8.805l-10.02-18.369c0-.455.456-.911.911-.911h2.733c.303 0 .607.304.759.607l7.59 13.815 7.591-13.815c.152-.303.455-.607.759-.607h2.732c.456 0 .911.456.911.911l-10.019 18.369v8.805z"/><path d="m142.992 157.566c1.974 0 8.654.456 8.654 7.439 0 3.643-1.67 5.617-3.947 6.224 2.125.455 5.313 2.581 5.313 7.287 0 6.072-4.554 7.742-10.627 7.742h-10.323c-.455 0-.911-.455-.911-.911v-26.718c0-.456.456-.911.911-.911h10.93zm.152 3.795h-7.742v8.502h7.742s4.403 0 4.403-4.099c0-4.403-4.403-4.403-4.403-4.403zm.304 21.406c3.34 0 5.465-.911 5.465-4.555 0-3.643-2.125-4.706-5.465-4.706h-8.198v9.261z"/><path d="m189.902 172.14c0 8.349-6.832 15.029-15.333 15.029s-15.333-6.68-15.333-15.029c0-8.35 6.832-15.029 15.333-15.029s15.333 6.679 15.333 15.029zm-4.099 0c0-6.376-5.162-11.234-11.234-11.234s-11.234 4.858-11.234 11.234c0 6.224 5.162 11.234 11.234 11.234s11.234-5.162 11.234-11.234z"/><path d="m226.488 172.14c0 8.349-6.832 15.029-15.333 15.029s-15.333-6.68-15.333-15.029c0-8.35 6.832-15.029 15.333-15.029s15.333 6.679 15.333 15.029zm-4.099 0c0-6.376-5.162-11.234-11.234-11.234s-11.234 4.858-11.234 11.234c0 6.224 5.162 11.234 11.234 11.234s11.234-5.162 11.234-11.234z"/><path d="m255.028 185.651c0 .455-.455.911-.911.911h-3.795c-.152 0-.455-.152-.607-.304l-13.056-12.6v11.841c0 .456-.455.911-.911.911h-2.277c-.455 0-.911-.455-.911-.911v-26.87c0-.456.456-.911.911-.911h2.277c.456 0 .911.455.911.911v11.537l11.993-12.296c.152-.152.456-.304.607-.304h3.492c.455 0 .911.456.911.911l-12.904 13.359z"/></g></svg>