<svg fill="none" height="209" viewBox="0 0 277 209" width="277" xmlns="http://www.w3.org/2000/svg" xmlns:xlink="http://www.w3.org/1999/xlink"><linearGradient id="a" gradientUnits="userSpaceOnUse" x1="83.9347" x2="204.247" y1="73.206" y2="73.206"><stop offset="0" stop-color="#0186ff"/><stop offset=".9387" stop-color="#60defe"/></linearGradient><linearGradient id="b" gradientUnits="userSpaceOnUse" x1="67.3655" x2="140.07" y1="73.0987" y2="73.0987"><stop offset=".0619712" stop-color="#0186ff"/><stop offset=".9387" stop-color="#60defe"/></linearGradient><path d="m208.574 24.2771c.759-1.0627-.303-2.1254-1.822-2.1254h-51.008-.303c-1.063 0-1.974.4555-2.429 1.2145l-69.0737 99.5868c-.1518.152-.1517.304-.1517.456 0 .455.6072.911 1.2144.911h.3037 4.2506l116.7417.152c1.518 0 2.581-1.215 1.822-2.126l-33.095-48.2753c-.303-.4554-.303-.9109 0-1.3663z" fill="url(#a)"/><path d="m137.527 22.1518-67.4032-.1518c-1.3663 0-2.429.759-2.429 1.8217l-.1518 98.6763c0 1.822 3.4916 2.429 4.7061.759l67.7069-98.5244c.607-1.2145-.455-2.5808-2.429-2.5808z" fill="url(#b)"/><g fill="#fff"><path d="m33.2266 157.566c1.5171 0 10.4681.152 10.4681 10.019 0 10.02-8.951 10.02-10.4681 10.02h-6.9787v7.894c0 .455-.4551.911-.9103.911h-2.4273c-.4552 0-.9103-.456-.9103-.911v-26.87c0-.456.4551-.911.9103-.911h10.3163zm0 3.795h-7.1304v12.601h7.1304c3.4894 0 6.2202-1.67 6.2202-6.225 0-4.554-2.5791-6.376-6.2202-6.376z"/><path d="m50.8251 186.562c-.4551 0-.9102-.456-.9102-.911v-27.022c0-.456.4551-.911.9102-.911h2.2757c.4551 0 .9102.455.9102.911v24.289h13.9575c.4551 0 .9102.456.9102.911v1.974c0 .455-.4551.911-.9102.911h-17.1434z"/><path d="m95.2764 181.097h-14.8677l-1.8205 4.857c-.1517.304-.4551.608-.7586.608h-2.579c-.4552 0-.9103-.456-.9103-.911l10.4681-27.326c.1517-.304.6068-.759 1.2136-.759h3.9445c.6069 0 1.062.304 1.2137.759l10.4678 27.326c0 .455-.455.911-.91.911h-2.5791c-.3034 0-.6068-.304-.7585-.608zm-13.3505-3.796h11.9851l-6.0684-15.788z"/><path d="m115.606 185.651c0 .455-.455.911-.911.911h-2.275c-.455 0-.91-.456-.91-.911v-8.805l-10.013-18.369c0-.456.455-.911.91-.911h2.731c.303 0 .606.304.758.607l7.586 13.815 7.585-13.815c.152-.303.455-.607.759-.607h2.731c.455 0 .91.455.91.911l-10.013 18.369v8.805z"/><path d="m143.065 157.566c1.973 0 8.648.455 8.648 7.439 0 3.643-1.669 5.617-3.945 6.224 2.124.455 5.31 2.581 5.31 7.287 0 6.072-4.551 7.742-10.619 7.742h-10.317c-.455 0-.91-.455-.91-.911v-26.718c0-.456.455-.911.91-.911h10.923zm0 3.795h-7.737v8.502h7.737s4.4 0 4.4-4.099c.152-4.403-4.4-4.403-4.4-4.403zm.455 21.405c3.338 0 5.462-.91 5.462-4.554 0-3.643-2.124-4.706-5.462-4.706h-8.192v9.26z"/><path d="m189.792 172.14c0 8.349-6.827 15.029-15.322 15.029-8.496 0-15.323-6.68-15.323-15.029 0-8.35 6.827-15.029 15.323-15.029 8.495 0 15.322 6.679 15.322 15.029zm-4.096 0c0-6.376-5.158-11.234-11.226-11.234-6.069 0-11.227 4.858-11.227 11.234 0 6.224 5.158 11.234 11.227 11.234 6.068 0 11.226-5.162 11.226-11.234z"/><path d="m226.355 172.14c0 8.349-6.827 15.029-15.323 15.029s-15.323-6.68-15.323-15.029c0-8.35 6.827-15.029 15.323-15.029s15.323 6.679 15.323 15.029zm-4.097 0c0-6.376-5.158-11.234-11.226-11.234-6.069 0-11.227 4.858-11.227 11.234 0 6.224 5.158 11.234 11.227 11.234 6.068 0 11.226-5.162 11.226-11.234z"/><path d="m255.028 185.651c0 .455-.455.911-.91.911h-3.793c-.152 0-.455-.152-.607-.304l-13.047-12.6v11.841c0 .455-.455.911-.91.911h-2.276c-.455 0-.91-.456-.91-.911v-26.87c0-.456.455-.911.91-.911h2.276c.455 0 .91.455.91.911v11.537l11.985-12.296c.152-.152.455-.304.607-.304h3.489c.456 0 .911.455.911.911l-12.896 13.359z"/></g></svg>