<svg fill="none" height="118" viewBox="0 0 400 118" width="400" xmlns="http://www.w3.org/2000/svg"><g fill="#fff"><path d="m122.82 23.7515c.543-.7663-.217-1.5325-1.302-1.5325h-36.4646-.217c-.7597 0-1.4109.3284-1.7365.8757l-49.3791 71.8107c-.1086.1094-.1086.2189-.1086.3284 0 .3284.4341.6568.8682.6568h.2171 3.0387l83.4558.1094c1.086 0 1.845-.8757 1.303-1.5325l-23.6588-34.8107c-.2171-.3284-.2171-.6568 0-.9852z"/><path d="m72.1389 22.1095-48.294-.1095c-.9767 0-1.7364.5473-1.7364 1.3136l-.1085 71.1539c0 1.3136 2.4961 1.7514 3.3643.5473l48.4025-71.0444c.5426-.8757-.3256-1.8609-1.6279-1.8609z"/><path d="m156.227 44.4553c1.517 0 10.468.1518 10.468 10.0195 0 10.0194-8.951 10.0194-10.468 10.0194h-6.979v7.8941c0 .4555-.455.9109-.91.9109h-2.428c-.455 0-.91-.4554-.91-.9109v-26.8703c0-.4554.455-.9109.91-.9109h10.317zm0 3.7953h-7.131v12.6002h7.131c3.489 0 6.22-1.6699 6.22-6.2242s-2.579-6.376-6.22-6.376z"/><path d="m173.825 73.4511c-.455 0-.91-.4554-.91-.9108v-27.0222c0-.4554.455-.9108.91-.9108h2.276c.455 0 .91.4554.91.9108v24.2896h13.957c.456 0 .911.4554.911.9109v1.9735c0 .4554-.455.9108-.911.9108h-17.143z"/><path d="m218.276 67.9858h-14.867l-1.821 4.858c-.152.3036-.455.6072-.758.6072h-2.579c-.456 0-.911-.4554-.911-.9109l10.468-27.3257c.152-.3036.607-.7591 1.214-.7591h3.945c.606 0 1.062.3036 1.213.7591l10.468 27.3257c0 .4555-.455.9109-.91.9109h-2.579c-.303 0-.607-.3036-.759-.6072zm-13.35-3.7952h11.985l-6.068-15.7882z"/><path d="m238.606 72.5401c0 .4555-.455.9109-.911.9109h-2.275c-.455 0-.91-.4554-.91-.9109v-8.8049l-10.013-18.369c0-.4554.455-.9109.91-.9109h2.731c.303 0 .606.3036.758.6073l7.586 13.8147 7.585-13.8147c.152-.3037.455-.6073.759-.6073h2.731c.455 0 .91.4555.91.9109l-10.013 18.369v8.8049z"/><path d="m266.065 44.4553c1.973 0 8.648.4555 8.648 7.4387 0 3.6434-1.669 5.617-3.945 6.2242 2.124.4554 5.31 2.5808 5.31 7.2869 0 6.0724-4.551 7.7423-10.619 7.7423h-10.317c-.455 0-.91-.4555-.91-.9109v-26.7185c0-.4554.455-.9109.91-.9109h10.923zm0 3.7953h-7.737v8.5013h7.737s4.4 0 4.4-4.0988c.152-4.4025-4.4-4.4025-4.4-4.4025zm.455 21.4052c3.338 0 5.462-.9109 5.462-4.5543 0-3.6435-2.124-4.7062-5.462-4.7062h-8.192v9.2605z"/><path d="m312.792 59.0292c0 8.3495-6.827 15.0291-15.322 15.0291-8.496 0-15.323-6.6796-15.323-15.0291 0-8.3496 6.827-15.0292 15.323-15.0292 8.495 0 15.322 6.6796 15.322 15.0292zm-4.096 0c0-6.376-5.158-11.234-11.226-11.234-6.069 0-11.227 4.858-11.227 11.234 0 6.2242 5.158 11.2339 11.227 11.2339 6.068 0 11.226-5.1615 11.226-11.2339z"/><path d="m349.355 59.0292c0 8.3495-6.827 15.0291-15.323 15.0291s-15.323-6.6796-15.323-15.0291c0-8.3496 6.827-15.0292 15.323-15.0292s15.323 6.6796 15.323 15.0292zm-4.097 0c0-6.376-5.158-11.234-11.226-11.234-6.069 0-11.227 4.858-11.227 11.234 0 6.2242 5.158 11.2339 11.227 11.2339 6.068 0 11.226-5.1615 11.226-11.2339z"/><path d="m378.028 72.5401c0 .4555-.455.9109-.91.9109h-3.793c-.152 0-.455-.1518-.607-.3036l-13.047-12.6002v11.8411c0 .4555-.455.9109-.91.9109h-2.276c-.455 0-.91-.4554-.91-.9109v-26.8703c0-.4554.455-.9109.91-.9109h2.276c.455 0 .91.4555.91.9109v11.5375l11.985-12.2966c.152-.1518.455-.3036.607-.3036h3.489c.456 0 .911.4555.911.9109l-12.896 13.3592z"/></g></svg>