<svg width="234" height="166" viewBox="0 0 234 166" fill="none" xmlns="http://www.w3.org/2000/svg">
<path d="M186.572 2.42538C187.331 1.36428 186.268 0.303192 184.75 0.303192H133.743H133.439C132.377 0.303192 131.466 0.757952 131.01 1.51588L61.9381 100.956C61.7863 101.107 61.7863 101.259 61.7863 101.411C61.7863 101.865 62.3935 102.32 63.0007 102.32H63.3043H67.5549L184.295 102.472C185.813 102.472 186.875 101.259 186.116 100.349L153.022 52.1453C152.719 51.6906 152.719 51.2358 153.022 50.7811L186.572 2.42538Z" fill="white"/>
<path d="M115.678 0.151571L48.1236 0C46.7574 0 45.6947 0.757922 45.6947 1.81902L45.5429 100.349C45.5429 102.168 49.0345 102.775 50.2489 101.107L117.955 2.72854C118.714 1.51586 117.499 0.151571 115.678 0.151571Z" fill="white"/>
<path d="M11.2339 135.935C12.752 135.935 21.7088 136.087 21.7088 145.955C21.7088 155.974 12.752 155.974 11.2339 155.974H4.25067V163.868C4.25067 164.323 3.79524 164.779 3.33981 164.779H0.910856C0.455427 164.779 0 164.323 0 163.868V136.998C0 136.542 0.455427 136.087 0.910856 136.087H11.2339V135.935ZM11.2339 139.73H4.09886V152.331H11.2339C14.7255 152.331 17.4581 150.661 17.4581 146.106C17.4581 141.552 14.8774 139.73 11.2339 139.73Z" fill="white"/>
<path d="M28.8439 164.931C28.3885 164.931 27.933 164.475 27.933 164.02V136.998C27.933 136.542 28.3885 136.087 28.8439 136.087H31.121C31.5765 136.087 32.0319 136.542 32.0319 136.998V161.287H45.9984C46.4538 161.287 46.9093 161.743 46.9093 162.198V164.172C46.9093 164.627 46.4538 165.083 45.9984 165.083H28.8439V164.931Z" fill="white"/>
<path d="M73.3241 159.466H58.4468L56.6251 164.323C56.4732 164.627 56.1696 164.931 55.866 164.931H53.2852C52.8298 164.931 52.3744 164.475 52.3744 164.02L62.8493 136.694C63.0011 136.39 63.4565 135.935 64.0637 135.935H68.0108C68.618 135.935 69.0735 136.239 69.2253 136.694L79.7002 164.02C79.7002 164.475 79.2447 164.931 78.7893 164.931H76.2085C75.9049 164.931 75.6013 164.627 75.4495 164.323L73.3241 159.466ZM59.9649 155.67H71.9579L65.8855 139.882L59.9649 155.67Z" fill="white"/>
<path d="M93.6667 164.02C93.6667 164.475 93.2113 164.931 92.7558 164.931H90.4787C90.0233 164.931 89.5678 164.475 89.5678 164.02V155.215L79.5484 136.846C79.5484 136.39 80.0038 135.935 80.4593 135.935H83.1918C83.4954 135.935 83.7991 136.239 83.9509 136.542L91.5414 150.357L99.1319 136.542C99.2837 136.239 99.5873 135.935 99.8909 135.935H102.623C103.079 135.935 103.534 136.39 103.534 136.846L93.5149 155.215V164.02H93.6667Z" fill="white"/>
<path d="M121.144 135.935C123.118 135.935 129.797 136.39 129.797 143.374C129.797 147.017 128.127 148.991 125.85 149.598C127.976 150.053 131.164 152.179 131.164 156.885C131.164 162.957 126.609 164.627 120.537 164.627H110.214C109.758 164.627 109.303 164.172 109.303 163.716V136.998C109.303 136.542 109.758 136.087 110.214 136.087H121.144V135.935ZM121.144 139.73H113.402V148.232H121.144C121.144 148.232 125.547 148.232 125.547 144.133C125.699 139.73 121.144 139.73 121.144 139.73ZM121.6 161.135C124.939 161.135 127.065 160.225 127.065 156.581C127.065 152.938 124.939 151.875 121.6 151.875H113.402V161.135H121.6Z" fill="white"/>
<path d="M167.902 150.509C167.902 158.858 161.07 165.538 152.569 165.538C144.068 165.538 137.236 158.858 137.236 150.509C137.236 142.159 144.068 135.48 152.569 135.48C161.07 135.48 167.902 142.159 167.902 150.509ZM163.803 150.509C163.803 144.133 158.641 139.275 152.569 139.275C146.496 139.275 141.335 144.133 141.335 150.509C141.335 156.733 146.496 161.743 152.569 161.743C158.641 161.743 163.803 156.581 163.803 150.509Z" fill="white"/>
<path d="M204.488 150.509C204.488 158.858 197.656 165.538 189.155 165.538C180.654 165.538 173.822 158.858 173.822 150.509C173.822 142.159 180.654 135.48 189.155 135.48C197.656 135.48 204.488 142.159 204.488 150.509ZM200.389 150.509C200.389 144.133 195.227 139.275 189.155 139.275C183.083 139.275 177.921 144.133 177.921 150.509C177.921 156.733 183.083 161.743 189.155 161.743C195.227 161.743 200.389 156.581 200.389 150.509Z" fill="white"/>
<path d="M233.18 164.02C233.18 164.475 232.724 164.931 232.269 164.931H228.474C228.322 164.931 228.018 164.779 227.866 164.627L214.811 152.027V163.868C214.811 164.323 214.355 164.779 213.9 164.779H211.623C211.167 164.779 210.712 164.323 210.712 163.868V136.998C210.712 136.542 211.167 136.087 211.623 136.087H213.9C214.355 136.087 214.811 136.542 214.811 136.998V148.535L226.804 136.239C226.956 136.087 227.259 135.935 227.411 135.935H230.903C231.358 135.935 231.814 136.39 231.814 136.846L218.91 150.205L233.18 164.02Z" fill="white"/>
</svg>
