<svg fill="none" height="209" viewBox="0 0 277 209" width="277" xmlns="http://www.w3.org/2000/svg"><g fill="#fff"><path d="m208.572 24.4254c.759-1.0611-.304-2.1222-1.822-2.1222h-51.007-.304c-1.062 0-1.973.4548-2.429 1.2127l-69.0719 99.4401c-.1518.151-.1518.303-.1518.455 0 .454.6072.909 1.2144.909h.3036 4.2506l116.7401.152c1.518 0 2.58-1.213 1.821-2.123l-33.094-48.2036c-.303-.4548-.303-.9095 0-1.3643z"/><path d="m137.678 22.1516-67.5544-.1516c-1.3662 0-2.4289.7579-2.4289 1.819l-.1518 98.53c0 1.819 3.4916 2.426 4.706.758l67.7061-98.3785c.759-1.2126-.456-2.5769-2.277-2.5769z"/><path d="m33.2339 157.935c1.5181 0 10.4749.152 10.4749 10.02 0 10.019-8.9568 10.019-10.4749 10.019h-6.9832v7.894c0 .455-.4555.911-.9109.911h-2.4289c-.4555 0-.9109-.456-.9109-.911v-26.87c0-.456.4554-.911.9109-.911h10.323zm0 3.795h-7.135v12.601h7.135c3.4916 0 6.2242-1.67 6.2242-6.225 0-4.554-2.5807-6.376-6.2242-6.376z"/><path d="m50.8439 186.931c-.4554 0-.9109-.456-.9109-.911v-27.022c0-.456.4555-.911.9109-.911h2.2771c.4555 0 .9109.455.9109.911v24.289h13.9665c.4554 0 .9109.456.9109.911v1.974c0 .455-.4555.911-.9109.911h-17.1545z"/><path d="m95.3241 181.466h-14.8773l-1.8217 4.857c-.1519.304-.4555.608-.7591.608h-2.5808c-.4554 0-.9108-.456-.9108-.911l10.4749-27.326c.1518-.304.6072-.759 1.2144-.759h3.9471c.6072 0 1.0627.304 1.2145.759l10.4747 27.326c0 .455-.455.911-.911.911h-2.5805c-.3036 0-.6072-.304-.759-.608zm-13.3592-3.796h11.993l-6.0724-15.788z"/><path d="m115.667 186.02c0 .455-.456.911-.911.911h-2.277c-.456 0-.911-.456-.911-.911v-8.805l-10.02-18.369c0-.456.456-.911.911-.911h2.733c.303 0 .607.304.759.607l7.59 13.815 7.591-13.815c.152-.303.455-.607.759-.607h2.732c.456 0 .911.455.911.911l-10.019 18.369v8.805z"/><path d="m143.144 157.935c1.974 0 8.653.455 8.653 7.439 0 3.643-1.67 5.617-3.947 6.224 2.126.455 5.314 2.581 5.314 7.287 0 6.072-4.555 7.742-10.627 7.742h-10.323c-.456 0-.911-.455-.911-.911v-26.718c0-.456.455-.911.911-.911h10.93zm0 3.795h-7.742v8.502h7.742s4.403 0 4.403-4.099c.152-4.403-4.403-4.403-4.403-4.403zm.456 21.405c3.339 0 5.465-.91 5.465-4.554 0-3.643-2.126-4.706-5.465-4.706h-8.198v9.26z"/><path d="m189.902 172.509c0 8.349-6.832 15.029-15.333 15.029s-15.333-6.68-15.333-15.029c0-8.35 6.832-15.029 15.333-15.029s15.333 6.679 15.333 15.029zm-4.099 0c0-6.376-5.162-11.234-11.234-11.234-6.073 0-11.234 4.858-11.234 11.234 0 6.224 5.161 11.234 11.234 11.234 6.072 0 11.234-5.162 11.234-11.234z"/><path d="m226.488 172.509c0 8.349-6.832 15.029-15.333 15.029s-15.333-6.68-15.333-15.029c0-8.35 6.832-15.029 15.333-15.029s15.333 6.679 15.333 15.029zm-4.099 0c0-6.376-5.162-11.234-11.234-11.234s-11.234 4.858-11.234 11.234c0 6.224 5.162 11.234 11.234 11.234s11.234-5.162 11.234-11.234z"/><path d="m255.18 186.02c0 .455-.456.911-.911.911h-3.795c-.152 0-.456-.152-.607-.304l-13.056-12.6v11.841c0 .455-.456.911-.911.911h-2.277c-.456 0-.911-.456-.911-.911v-26.87c0-.456.455-.911.911-.911h2.277c.455 0 .911.455.911.911v11.537l11.993-12.296c.152-.152.455-.304.607-.304h3.492c.455 0 .911.455.911.911l-12.904 13.359z"/></g></svg>