<svg width="234" height="31" viewBox="0 0 234 31" fill="none" xmlns="http://www.w3.org/2000/svg">
<path d="M11.0822 0.455505C12.6003 0.455505 21.557 0.607324 21.557 10.475C21.557 20.4944 12.6003 20.4944 11.0822 20.4944H4.0989V28.3885C4.0989 28.8439 3.64346 29.2994 3.18803 29.2994H0.910883C0.455453 29.2994 6.10352e-05 28.8439 6.10352e-05 28.3885V1.51818C6.10352e-05 1.06275 0.455453 0.607324 0.910883 0.607324H11.0822V0.455505ZM11.234 4.25075H4.0989V16.851H11.234C14.7256 16.851 17.4582 15.1811 17.4582 10.6268C17.4582 6.07247 14.7256 4.25075 11.234 4.25075Z" fill="#18242D"/>
<path d="M28.6922 29.4511C28.2367 29.4511 27.7813 28.9957 27.7813 28.5403V1.51813C27.7813 1.0627 28.2367 0.607269 28.6922 0.607269H30.9693C31.4248 0.607269 31.8802 1.0627 31.8802 1.51813V25.8077H45.8467C46.3021 25.8077 46.7575 26.2631 46.7575 26.7186V28.6921C46.7575 29.1475 46.3021 29.6029 45.8467 29.6029H28.6922V29.4511Z" fill="#18242D"/>
<path d="M73.1724 23.986H58.295L56.4733 28.8439C56.3215 29.1476 56.0179 29.4512 55.7143 29.4512H53.1335C52.6781 29.4512 52.2227 28.9957 52.2227 28.5403L62.6975 1.21455C62.8493 0.910935 63.3047 0.455505 63.912 0.455505H67.859C68.4663 0.455505 68.9217 0.759125 69.0736 1.21455L79.5484 28.5403C79.5484 28.9957 79.093 29.4512 78.6376 29.4512H76.0568C75.7531 29.4512 75.4495 29.1476 75.2977 28.8439L73.1724 23.986ZM59.8131 20.1908H71.8061L65.7337 4.40257L59.8131 20.1908Z" fill="#18242D"/>
<path d="M93.6667 28.5403C93.6667 28.9957 93.2113 29.4512 92.7558 29.4512H90.4787C90.0232 29.4512 89.5679 28.9957 89.5679 28.5403V19.7354L79.5484 1.36637C79.5484 0.910944 80.0038 0.455505 80.4593 0.455505H83.1918C83.4954 0.455505 83.7991 0.759127 83.9509 1.06275L91.5414 14.8774L99.1319 1.06275C99.2837 0.759127 99.5873 0.455505 99.8909 0.455505H102.623C103.079 0.455505 103.534 0.910944 103.534 1.36637L93.5149 19.7354V28.5403H93.6667Z" fill="#18242D"/>
<path d="M120.992 0.455505C122.966 0.455505 129.646 0.910937 129.646 7.89419C129.646 11.5376 127.976 13.5111 125.699 14.1184C127.824 14.5738 131.012 16.6992 131.012 21.4053C131.012 27.4777 126.458 29.1476 120.385 29.1476H110.062C109.607 29.1476 109.151 28.6921 109.151 28.2367V1.51818C109.151 1.06275 109.607 0.607324 110.062 0.607324H120.992V0.455505ZM121.144 4.25075H113.402V12.7521H121.144C121.144 12.7521 125.547 12.7521 125.547 8.65324C125.547 4.25075 121.144 4.25075 121.144 4.25075ZM121.448 25.6559C124.788 25.6559 126.913 24.7451 126.913 21.1016C126.913 17.4582 124.788 16.3955 121.448 16.3955H113.25V25.6559H121.448Z" fill="#18242D"/>
<path d="M167.902 15.0292C167.902 23.3787 161.07 30.0583 152.569 30.0583C144.068 30.0583 137.236 23.3787 137.236 15.0292C137.236 6.67963 144.068 0 152.569 0C161.07 0 167.902 6.67963 167.902 15.0292ZM163.803 15.0292C163.803 8.65316 158.641 3.79524 152.569 3.79524C146.496 3.79524 141.335 8.65316 141.335 15.0292C141.335 21.2534 146.496 26.2631 152.569 26.2631C158.641 26.2631 163.803 21.1016 163.803 15.0292Z" fill="#18242D"/>
<path d="M204.488 15.0292C204.488 23.3787 197.656 30.0583 189.155 30.0583C180.654 30.0583 173.822 23.3787 173.822 15.0292C173.822 6.67963 180.654 0 189.155 0C197.656 0 204.488 6.67963 204.488 15.0292ZM200.389 15.0292C200.389 8.65316 195.227 3.79524 189.155 3.79524C183.083 3.79524 177.921 8.65316 177.921 15.0292C177.921 21.2534 183.083 26.2631 189.155 26.2631C195.227 26.2631 200.389 21.1016 200.389 15.0292Z" fill="#18242D"/>
<path d="M233.028 28.5403C233.028 28.9957 232.573 29.4512 232.117 29.4512H228.322C228.17 29.4512 227.867 29.2994 227.715 29.1476L214.659 16.5474V28.3885C214.659 28.8439 214.204 29.2994 213.748 29.2994H211.471C211.016 29.2994 210.56 28.8439 210.56 28.3885V1.51818C210.56 1.06275 211.016 0.607324 211.471 0.607324H213.748C214.204 0.607324 214.659 1.06275 214.659 1.51818V13.0557L226.652 0.759132C226.804 0.607322 227.108 0.455505 227.259 0.455505H230.751C231.206 0.455505 231.662 0.910944 231.662 1.36637L218.758 14.7256L233.028 28.5403Z" fill="#18242D"/>
</svg>
