<svg width="234" height="31" viewBox="0 0 234 31" fill="none" xmlns="http://www.w3.org/2000/svg">
<path d="M11.2339 0.455322C12.752 0.455322 21.7088 0.607141 21.7088 10.4748C21.7088 20.4942 12.752 20.4942 11.2339 20.4942H4.25067V28.3883C4.25067 28.8438 3.79524 29.2992 3.33981 29.2992H0.910856C0.455427 29.2992 0 28.8438 0 28.3883V1.518C0 1.06257 0.455427 0.607141 0.910856 0.607141H11.2339V0.455322ZM11.2339 4.25057H4.09886V16.8508H11.2339C14.7255 16.8508 17.4581 15.1809 17.4581 10.6266C17.4581 6.07229 14.8774 4.25057 11.2339 4.25057Z" fill="white"/>
<path d="M28.8439 29.4511C28.3885 29.4511 27.933 28.9957 27.933 28.5403V1.51813C27.933 1.0627 28.3885 0.607269 28.8439 0.607269H31.121C31.5765 0.607269 32.0319 1.0627 32.0319 1.51813V25.8077H45.9984C46.4538 25.8077 46.9093 26.2631 46.9093 26.7186V28.6921C46.9093 29.1475 46.4538 29.6029 45.9984 29.6029H28.8439V29.4511Z" fill="white"/>
<path d="M73.3241 23.9858H58.4468L56.6251 28.8438C56.4732 29.1474 56.1696 29.451 55.866 29.451H53.2852C52.8298 29.451 52.3744 28.9956 52.3744 28.5401L62.8493 1.21437C63.0011 0.910752 63.4565 0.455322 64.0637 0.455322H68.0108C68.618 0.455322 69.0735 0.758942 69.2253 1.21437L79.7002 28.5401C79.7002 28.9956 79.2447 29.451 78.7893 29.451H76.2085C75.9049 29.451 75.6013 29.1474 75.4495 28.8438L73.3241 23.9858ZM59.9649 20.1906H71.9579L65.8855 4.40239L59.9649 20.1906Z" fill="white"/>
<path d="M93.6667 28.5401C93.6667 28.9956 93.2113 29.451 92.7558 29.451H90.4787C90.0233 29.451 89.5678 28.9956 89.5678 28.5401V19.7352L79.5484 1.36619C79.5484 0.910761 80.0038 0.455322 80.4593 0.455322H83.1918C83.4954 0.455322 83.7991 0.758944 83.9509 1.06256L91.5414 14.8773L99.1319 1.06256C99.2837 0.758944 99.5873 0.455322 99.8909 0.455322H102.623C103.079 0.455322 103.534 0.910761 103.534 1.36619L93.5149 19.7352V28.5401H93.6667Z" fill="white"/>
<path d="M121.144 0.455322C123.118 0.455322 129.797 0.910754 129.797 7.894C129.797 11.5374 128.127 13.511 125.85 14.1182C127.976 14.5736 131.164 16.699 131.164 21.4051C131.164 27.4775 126.609 29.1474 120.537 29.1474H110.214C109.758 29.1474 109.303 28.6919 109.303 28.2365V1.518C109.303 1.06257 109.758 0.607141 110.214 0.607141H121.144V0.455322ZM121.144 4.25057H113.402V12.7519H121.144C121.144 12.7519 125.547 12.7519 125.547 8.65305C125.699 4.25057 121.144 4.25057 121.144 4.25057ZM121.6 25.6558C124.939 25.6558 127.065 24.7449 127.065 21.1015C127.065 17.458 124.939 16.3953 121.6 16.3953H113.402V25.6558H121.6Z" fill="white"/>
<path d="M167.902 15.0292C167.902 23.3787 161.07 30.0583 152.569 30.0583C144.068 30.0583 137.236 23.3787 137.236 15.0292C137.236 6.67963 144.068 0 152.569 0C161.07 0 167.902 6.67963 167.902 15.0292ZM163.803 15.0292C163.803 8.65316 158.641 3.79524 152.569 3.79524C146.496 3.79524 141.335 8.65316 141.335 15.0292C141.335 21.2534 146.496 26.2631 152.569 26.2631C158.641 26.2631 163.803 21.1016 163.803 15.0292Z" fill="white"/>
<path d="M204.488 15.0292C204.488 23.3787 197.656 30.0583 189.155 30.0583C180.654 30.0583 173.822 23.3787 173.822 15.0292C173.822 6.67963 180.654 0 189.155 0C197.656 0 204.488 6.67963 204.488 15.0292ZM200.389 15.0292C200.389 8.65316 195.227 3.79524 189.155 3.79524C183.083 3.79524 177.921 8.65316 177.921 15.0292C177.921 21.2534 183.083 26.2631 189.155 26.2631C195.227 26.2631 200.389 21.1016 200.389 15.0292Z" fill="white"/>
<path d="M233.18 28.5401C233.18 28.9956 232.724 29.451 232.269 29.451H228.474C228.322 29.451 228.018 29.2992 227.867 29.1474L214.811 16.5472V28.3883C214.811 28.8438 214.355 29.2992 213.9 29.2992H211.623C211.167 29.2992 210.712 28.8438 210.712 28.3883V1.518C210.712 1.06257 211.167 0.607141 211.623 0.607141H213.9C214.355 0.607141 214.811 1.06257 214.811 1.518V13.0555L226.804 0.758949C226.956 0.607139 227.259 0.455322 227.411 0.455322H230.903C231.358 0.455322 231.814 0.910761 231.814 1.36619L218.91 14.7254L233.18 28.5401Z" fill="white"/>
</svg>
