<svg width="142" height="103" viewBox="0 0 142 103" fill="none" xmlns="http://www.w3.org/2000/svg">
<path fill-rule="evenodd" clip-rule="evenodd" d="M87.9908 1.52588e-05H88.2947L139.205 0.15206C140.725 0.15206 141.788 1.2163 141.028 2.28054L107.595 50.6277C107.291 51.0838 107.291 51.5399 107.595 51.996L140.725 100.343C141.484 101.255 140.421 102.472 138.901 102.472L22.0356 102.32H17.7805H17.4765C16.8686 102.32 16.2608 101.863 16.2608 101.407V101.407C16.2608 101.255 16.2608 101.103 16.4127 100.951L85.5592 1.2163C86.0152 0.456125 86.927 1.52588e-05 87.9908 1.52588e-05Z" fill="#18242D"/>
<path fill-rule="evenodd" clip-rule="evenodd" d="M0.15198 1.82444C0.15198 0.760194 1.21578 0 2.58352 0L70.2104 0.152044C72.186 0.152044 73.2498 1.52035 72.4899 2.73663L4.71109 101.407C4.25518 102.168 3.49534 102.472 2.58352 102.472C1.21578 102.472 0 101.711 0 100.647L0.15198 1.82444Z" fill="#18242D"/>
</svg>
