<svg width="142" height="103" viewBox="0 0 142 103" fill="none" xmlns="http://www.w3.org/2000/svg">
<path d="M141.029 2.42538C141.788 1.36428 140.725 0.303192 139.207 0.303192H88.1999H87.8963C86.8336 0.303192 85.9228 0.757952 85.4673 1.51588L16.3952 100.956C16.2433 101.107 16.2433 101.259 16.2433 101.411C16.2433 101.865 16.8506 102.32 17.4578 102.32H17.7614H22.012L138.752 102.472C140.27 102.472 141.332 101.259 140.573 100.349L107.479 52.1453C107.176 51.6906 107.176 51.2358 107.479 50.7811L141.029 2.42538Z" fill="white"/>
<path d="M70.1348 0.151571L2.58073 0C1.21446 0 0.151816 0.757922 0.151816 1.81902L0 100.349C0 102.168 3.49157 102.775 4.70603 101.107L72.4119 2.72854C73.171 1.51586 71.9565 0.151571 70.1348 0.151571Z" fill="white"/>
</svg>
